<svg width="34" height="35" viewBox="0 0 34 35" fill="none" xmlns="http://www.w3.org/2000/svg">
<rect width="34" height="35" fill="#F5F5F5"/>
<g clip-path="url(#clip0_0_1)">
<path d="M8.15527 20.1045C6.19629 20.2305 4.41846 20.9766 3.40967 23.6348C3.29492 23.938 3.01904 24.1221 2.69727 24.1221C2.15479 24.1221 0.477539 22.771 -0.000488281 22.4448C0 26.4658 1.85205 30 6.25 30C9.9541 30 12.5 27.8628 12.5 24.1313C12.5 23.9795 12.4683 23.8345 12.4526 23.6855L8.15527 20.1045ZM22.3579 5C21.6177 5 20.9238 5.32764 20.3945 5.80322C10.4136 14.7192 9.375 14.9287 9.375 17.5532C9.375 18.2222 9.53369 18.8599 9.80127 19.4429L12.9175 22.0396C13.2695 22.1274 13.6323 22.1875 14.0107 22.1875C17.0435 22.1875 18.8013 19.9673 24.3213 9.66504C24.6816 8.96436 25 8.20752 25 7.41943C25 6.00781 23.7305 5 22.3579 5Z" fill="#2C2AA3"/>
</g>
<defs>
<clipPath id="clip0_0_1">
<rect width="25" height="25" fill="white" transform="translate(0 5)"/>
</clipPath>
</defs>
</svg>
